{"asset":{"version":"2.0","generator":"Blockbench 5.0.2 glTF exporter"},"scenes":[{"nodes":[12,13],"name":"blockbench_export"}],"scene":0,"nodes":[{"translation":[0,-0.1875,0],"name":"head","mesh":0},{"translation":[-0.0625,0.5,0],"name":"head","children":[0]},{"translation":[0,-0.1875,0],"name":"body","mesh":1},{"translation":[0,-0.4375,0],"name":"torso","children":[2]},{"translation":[0,-0.1875,0],"name":"arm_right","mesh":2},{"translation":[0,-0.4375,0],"name":"arm_right","children":[4]},{"translation":[0,-0.1875,0],"name":"arm left","mesh":3},{"translation":[0,-0.4375,0],"name":"arm left","children":[6]},{"translation":[-0.0625,-0.6875,0],"name":"leg_left","mesh":4},{"translation":[0.0625,0.0625,0],"name":"leg_left","children":[8]},{"translation":[0.125,-0.6875,0],"name":"leg_right","mesh":5},{"translation":[-0.125,0.0625,0],"name":"leg_right","children":[10]},{"translation":[0,0.4375,0],"name":"body","children":[1,3,5,7,9,11]},{"translation":[-0.0625,0.75,0],"name":"collision-colonly","mesh":6}],"bufferViews":[{"buffer":0,"byteOffset":0,"byteLength":288,"target":34962,"byteStride":12},{"buffer":0,"byteOffset":288,"byteLength":288,"target":34962,"byteStride":12},{"buffer":0,"byteOffset":576,"byteLength":192,"target":34962,"byteStride":8},{"buffer":0,"byteOffset":768,"byteLength":72,"target":34963},{"buffer":0,"byteOffset":840,"byteLength":1152,"target":34962,"byteStride":12},{"buffer":0,"byteOffset":1992,"byteLength":1152,"target":34962,"byteStride":12},{"buffer":0,"byteOffset":3144,"byteLength":768,"target":34962,"byteStride":8},{"buffer":0,"byteOffset":3912,"byteLength":288,"target":34963},{"buffer":0,"byteOffset":4200,"byteLength":432,"target":34962,"byteStride":12},{"buffer":0,"byteOffset":4632,"byteLength":432,"target":34962,"byteStride":12},{"buffer":0,"byteOffset":5064,"byteLength":288,"target":34962,"byteStride":8},{"buffer":0,"byteOffset":5352,"byteLength":108,"target":34963},{"buffer":0,"byteOffset":5460,"byteLength":432,"target":34962,"byteStride":12},{"buffer":0,"byteOffset":5892,"byteLength":432,"target":34962,"byteStride":12},{"buffer":0,"byteOffset":6324,"byteLength":288,"target":34962,"byteStride":8},{"buffer":0,"byteOffset":6612,"byteLength":108,"target":34963},{"buffer":0,"byteOffset":6720,"byteLength":240,"target":34962,"byteStride":12},{"buffer":0,"byteOffset":6960,"byteLength":240,"target":34962,"byteStride":12},{"buffer":0,"byteOffset":7200,"byteLength":160,"target":34962,"byteStride":8},{"buffer":0,"byteOffset":7360,"byteLength":60,"target":34963},{"buffer":0,"byteOffset":7420,"byteLength":240,"target":34962,"byteStride":12},{"buffer":0,"byteOffset":7660,"byteLength":240,"target":34962,"byteStride":12},{"buffer":0,"byteOffset":7900,"byteLength":160,"target":34962,"byteStride":8},{"buffer":0,"byteOffset":8060,"byteLength":60,"target":34963},{"buffer":0,"byteOffset":8120,"byteLength":2784,"target":34962,"byteStride":12},{"buffer":0,"byteOffset":10904,"byteLength":2784,"target":34962,"byteStride":12},{"buffer":0,"byteOffset":13688,"byteLength":1856,"target":34962,"byteStride":8},{"buffer":0,"byteOffset":15544,"byteLength":72,"target":34963},{"buffer":0,"byteOffset":15616,"byteLength":624,"target":34963},{"buffer":0,"byteOffset":16240,"byteLength":12},{"buffer":0,"byteOffset":16252,"byteLength":48},{"buffer":0,"byteOffset":16300,"byteLength":12},{"buffer":0,"byteOffset":16312,"byteLength":48}],"buffers":[{"byteLength":16360,"uri":"data:application/octet-stream;base64,"}],"accessors":[{"bufferView":0,"componentType":5126,"count":24,"max":[0.125,0.1875,0.0625],"min":[-0.0625,0,-0.0625],"type":"VEC3"},{"bufferView":1,"componentType":5126,"count":24,"max":[1,1,1],"min":[-1,-1,-1],"type":"VEC3"},{"bufferView":2,"componentType":5126,"count":24,"max":[0.5,0.375],"min":[0,0],"type":"VEC2"},{"bufferView":3,"componentType":5123,"count":36,"max":[23],"min":[0],"type":"SCALAR"},{"bufferView":4,"componentType":5126,"count":96,"max":[0.125,0.9375,0.0625],"min":[-0.1875,0.5,-0.0625],"type":"VEC3"},{"bufferView":5,"componentType":5126,"count":96,"max":[1,1,1],"min":[-1,-0.4472135901451111,-1],"type":"VEC3"},{"bufferView":6,"componentType":5126,"count":96,"max":[0.40625,0.34375],"min":[0,0],"type":"VEC2"},{"bufferView":7,"componentType":5123,"count":144,"max":[95],"min":[0],"type":"SCALAR"},{"bufferView":8,"componentType":5126,"count":36,"max":[0.5625,0.9375,0.0625],"min":[0.125,0.8125,-0.0625],"type":"VEC3"},{"bufferView":9,"componentType":5126,"count":36,"max":[1,1,1],"min":[0,-1,-1],"type":"VEC3"},{"bufferView":10,"componentType":5126,"count":36,"max":[0.515625,0.296875],"min":[0,0],"type":"VEC2"},{"bufferView":11,"componentType":5123,"count":54,"max":[35],"min":[0],"type":"SCALAR"},{"bufferView":12,"componentType":5126,"count":36,"max":[-0.1875,0.9375,0.0625],"min":[-0.625,0.8125,-0.0625],"type":"VEC3"},{"bufferView":13,"componentType":5126,"count":36,"max":[0,1,1],"min":[-1,-1,-1],"type":"VEC3"},{"bufferView":14,"componentType":5126,"count":36,"max":[0.328125,0.296875],"min":[0,0],"type":"VEC2"},{"bufferView":15,"componentType":5123,"count":54,"max":[35],"min":[0],"type":"SCALAR"},{"bufferView":16,"componentType":5126,"count":20,"max":[0.125,0.5,0.0625],"min":[0,0.1875,-0.0625],"type":"VEC3"},{"bufferView":17,"componentType":5126,"count":20,"max":[1,0,1],"min":[-1,-1,-1],"type":"VEC3"},{"bufferView":18,"componentType":5126,"count":20,"max":[0.34375,0.421875],"min":[0,0],"type":"VEC2"},{"bufferView":19,"componentType":5123,"count":30,"max":[19],"min":[0],"type":"SCALAR"},{"bufferView":20,"componentType":5126,"count":20,"max":[-0.0625,0.5,0.0625],"min":[-0.1875,0.1875,-0.0625],"type":"VEC3"},{"bufferView":21,"componentType":5126,"count":20,"max":[1,0,1],"min":[-1,-1,-1],"type":"VEC3"},{"bufferView":22,"componentType":5126,"count":20,"max":[0.34375,0.421875],"min":[0.046875,0.07996875047683716],"type":"VEC2"},{"bufferView":23,"componentType":5123,"count":30,"max":[19],"min":[0],"type":"SCALAR"},{"bufferView":24,"componentType":5126,"count":232,"max":[0.625,0.1875,0.0625],"min":[-0.5625,-0.75,-0.0625],"type":"VEC3"},{"bufferView":25,"componentType":5126,"count":232,"max":[1,1,1],"min":[-1,-1,-1],"type":"VEC3"},{"bufferView":26,"componentType":5126,"count":232,"max":[0.515625,0.421875],"min":[0,0],"type":"VEC2"},{"bufferView":27,"componentType":5123,"count":36,"max":[23],"min":[0],"type":"SCALAR"},{"bufferView":28,"componentType":5123,"count":312,"max":[231],"min":[24],"type":"SCALAR"},{"bufferView":29,"componentType":5126,"count":3,"max":[2],"min":[0],"type":"SCALAR"},{"bufferView":30,"componentType":5126,"count":3,"max":[0.30070579051971436,0,0,0.9537169337272644],"min":[-0.30070579051971436,0,0,0.9537169337272644],"type":"VEC4"},{"bufferView":31,"componentType":5126,"count":3,"max":[2],"min":[0],"type":"SCALAR"},{"bufferView":32,"componentType":5126,"count":3,"max":[0.30070579051971436,0,0,0.9537169337272644],"min":[-0.30070579051971436,0,0,0.9537169337272644],"type":"VEC4"}],"materials":[{"pbrMetallicRoughness":{"metallicFactor":0,"roughnessFactor":1,"baseColorTexture":{"index":0}},"alphaMode":"MASK","alphaCutoff":0.05,"doubleSided":true},{"pbrMetallicRoughness":{"metallicFactor":0,"roughnessFactor":1,"baseColorTexture":{"index":1}},"alphaMode":"MASK","alphaCutoff":0.05,"doubleSided":true}],"textures":[{"sampler":0,"source":0,"name":"texture"},{"sampler":1,"source":1,"name":"body"}],"samplers":[{"magFilter":9728,"minFilter":9728,"wrapS":33071,"wrapT":33071},{"magFilter":9728,"minFilter":9728,"wrapS":33071,"wrapT":33071}],"images":[{"mimeType":"image/png","uri":"data:image/png;base64,"},{"mimeType":"image/png","uri":"data:image/png;base64,"}],"meshes":[{"primitives":[{"mode":4,"attributes":{"POSITION":0,"NORMAL":1,"TEXCOORD_0":2},"indices":3,"material":0}]},{"primitives":[{"mode":4,"attributes":{"POSITION":4,"NORMAL":5,"TEXCOORD_0":6},"indices":7,"material":1}]},{"primitives":[{"mode":4,"attributes":{"POSITION":8,"NORMAL":9,"TEXCOORD_0":10},"indices":11,"material":1}]},{"primitives":[{"mode":4,"attributes":{"POSITION":12,"NORMAL":13,"TEXCOORD_0":14},"indices":15,"material":1}]},{"primitives":[{"mode":4,"attributes":{"POSITION":16,"NORMAL":17,"TEXCOORD_0":18},"indices":19,"material":1}]},{"primitives":[{"mode":4,"attributes":{"POSITION":20,"NORMAL":21,"TEXCOORD_0":22},"indices":23,"material":1}]},{"primitives":[{"mode":4,"attributes":{"POSITION":24,"NORMAL":25,"TEXCOORD_0":26},"indices":27,"material":0},{"mode":4,"attributes":{"POSITION":24,"NORMAL":25,"TEXCOORD_0":26},"indices":28,"material":1}]}],"animations":[{"name":"walk","samplers":[{"input":29,"output":30,"interpolation":"LINEAR"},{"input":31,"output":32,"interpolation":"LINEAR"}],"channels":[{"sampler":0,"target":{"node":11,"path":"rotation"}},{"sampler":1,"target":{"node":9,"path":"rotation"}}]}]}